<?xml version="1.0" encoding="UTF-8"?>
<svg width="20px" height="20px" viewBox="0 0 20 20" version="1.1" xmlns="http://www.w3.org/2000/svg" xmlns:xlink="http://www.w3.org/1999/xlink">
    <!-- Generator: Sketch 54.1 (76490) - https://sketchapp.com -->
    <title>Group 5</title>
    <desc>Created with Sketch.</desc>
    <g id="Version-2" stroke="none" stroke-width="1" fill="none" fill-rule="evenodd">
        <g id="Catalog-(mobile)-CATEGORY" transform="translate(-47.000000, -71.000000)" fill="#007E3F">
            <g id="Group-3" transform="translate(47.000000, 71.000000)">
                <g id="Group-5">
                    <path d="M2,7 L2,2 L7,2 L7.001,7 L2,7 Z M7,0 L2,0 C0.897,0 0,0.897 0,2 L0,7 C0,8.103 0.897,9 2,9 L7,9 C8.103,9 9,8.103 9,7 L9,2 C9,0.897 8.103,0 7,0 L7,0 Z" id="Fill-1"></path>
                    <path d="M13,7 L13,2 L18,2 L18.001,7 L13,7 Z M18,0 L13,0 C11.897,0 11,0.897 11,2 L11,7 C11,8.103 11.897,9 13,9 L18,9 C19.103,9 20,8.103 20,7 L20,2 C20,0.897 19.103,0 18,0 L18,0 Z" id="Fill-3"></path>
                    <path d="M2,18 L2,13 L7,13 L7.001,18 L2,18 Z M7,11 L2,11 C0.897,11 0,11.897 0,13 L0,18 C0,19.103 0.897,20 2,20 L7,20 C8.103,20 9,19.103 9,18 L9,13 C9,11.897 8.103,11 7,11 L7,11 Z" id="Fill-5"></path>
                    <path d="M13,18 L13,13 L18,13 L18.002,18 L13,18 Z M18,11 L13,11 C11.897,11 11,11.897 11,13 L11,18 C11,19.103 11.897,20 13,20 L18,20 C19.103,20 20,19.103 20,18 L20,13 C20,11.897 19.103,11 18,11 L18,11 Z" id="Fill-7"></path>
                </g>
            </g>
        </g>
    </g>
</svg>