<?xml version="1.0" encoding="UTF-8"?>
<svg width="20px" height="20px" viewBox="0 0 20 20" version="1.1" xmlns="http://www.w3.org/2000/svg" xmlns:xlink="http://www.w3.org/1999/xlink">
    <!-- Generator: Sketch 55.1 (78136) - https://sketchapp.com -->
    <title>Fill 1</title>
    <desc>Created with Sketch.</desc>
    <g id="Version-2" stroke="none" stroke-width="1" fill="none" fill-rule="evenodd">
        <g id="Aproval-workflow" transform="translate(-1222.000000, -258.000000)" fill="#4DA0F7">
            <path d="M1232,276.5 C1227.313,276.5 1223.5,272.687 1223.5,268 C1223.5,263.566 1226.914,259.919 1231.25,259.538 L1231.25,270.689 L1229.53,268.97 C1229.237,268.677 1228.763,268.677 1228.47,268.97 C1228.177,269.263 1228.177,269.737 1228.47,270.03 L1231.47,273.03 C1231.616,273.177 1231.808,273.25 1232,273.25 C1232.192,273.25 1232.384,273.177 1232.53,273.03 L1235.53,270.03 C1235.823,269.737 1235.823,269.263 1235.53,268.97 C1235.237,268.677 1234.763,268.677 1234.47,268.97 L1232.75,270.689 L1232.75,259.538 C1237.086,259.919 1240.5,263.566 1240.5,268 C1240.5,272.687 1236.687,276.5 1232,276.5 M1232,258 C1226.486,258 1222,262.486 1222,268 C1222,273.514 1226.486,278 1232,278 C1237.514,278 1242,273.514 1242,268 C1242,262.486 1237.514,258 1232,258" id="Fill-1"></path>
        </g>
    </g>
</svg>