<?xml version="1.0" encoding="UTF-8"?>
<svg width="20px" height="20px" viewBox="0 0 20 20" version="1.1" xmlns="http://www.w3.org/2000/svg" xmlns:xlink="http://www.w3.org/1999/xlink">
    <!-- Generator: Sketch 54.1 (76490) - https://sketchapp.com -->
    <title>Fill 1</title>
    <desc>Created with Sketch.</desc>
    <g id="Version-2" stroke="none" stroke-width="1" fill="none" fill-rule="evenodd">
        <g id="Catalog-(mobile)-CATEGORY" transform="translate(-243.000000, -71.000000)" fill="#464646">
            <g id="Group-2" transform="translate(243.000000, 71.000000)">
                <path d="M2,7.5 C2,4.467 4.467,2 7.5,2 C10.533,2 13,4.467 13,7.5 C13,10.533 10.533,13 7.5,13 C4.467,13 2,10.533 2,7.5 M19.707,18.293 L13.455,12.041 C14.42,10.779 15,9.208 15,7.5 C15,3.364 11.636,0 7.5,0 C3.364,0 2.48689958e-14,3.364 2.48689958e-14,7.5 C2.48689958e-14,11.636 3.364,15 7.5,15 C9.208,15 10.779,14.42 12.041,13.455 L18.293,19.707 C18.488,19.902 18.744,20 19,20 C19.256,20 19.512,19.902 19.707,19.707 C20.098,19.316 20.098,18.684 19.707,18.293" id="Fill-1"></path>
            </g>
        </g>
    </g>
</svg>