<?xml version="1.0" encoding="UTF-8"?>
<svg width="20px" height="20px" viewBox="0 0 20 20" version="1.1" xmlns="http://www.w3.org/2000/svg" xmlns:xlink="http://www.w3.org/1999/xlink">
    <!-- Generator: Sketch 55.1 (78136) - https://sketchapp.com -->
    <title>Fill 1</title>
    <desc>Created with Sketch.</desc>
    <g id="Version-2" stroke="none" stroke-width="1" fill="none" fill-rule="evenodd">
        <g id="Aproval-workflow" transform="translate(-312.000000, -258.000000)" fill="#07B919">
            <path d="M322,276.5 C317.313,276.5 313.5,272.687 313.5,268 C313.5,263.566 316.914,259.919 321.25,259.538 L321.25,270.689 L319.53,268.97 C319.237,268.677 318.763,268.677 318.47,268.97 C318.177,269.263 318.177,269.737 318.47,270.03 L321.47,273.03 C321.616,273.177 321.808,273.25 322,273.25 C322.192,273.25 322.384,273.177 322.53,273.03 L325.53,270.03 C325.823,269.737 325.823,269.263 325.53,268.97 C325.237,268.677 324.763,268.677 324.47,268.97 L322.75,270.689 L322.75,259.538 C327.086,259.919 330.5,263.566 330.5,268 C330.5,272.687 326.687,276.5 322,276.5 M322,258 C316.486,258 312,262.486 312,268 C312,273.514 316.486,278 322,278 C327.514,278 332,273.514 332,268 C332,262.486 327.514,258 322,258" id="Fill-1" transform="translate(322.000000, 268.000000) rotate(-180.000000) translate(-322.000000, -268.000000) "></path>
        </g>
    </g>
</svg>