<?xml version="1.0" encoding="UTF-8"?>
<svg width="139px" height="40px" viewBox="0 0 139 40" version="1.1" xmlns="http://www.w3.org/2000/svg" xmlns:xlink="http://www.w3.org/1999/xlink">
    <!-- Generator: Sketch 54.1 (76490) - https://sketchapp.com -->
    <title>Group 14</title>
    <desc>Created with Sketch.</desc>
    <defs>
        <polygon id="path-1" points="0 0.609777778 45.3768889 0.609777778 45.3768889 39.2592593 0 39.2592593"></polygon>
    </defs>
    <g id="Version-2" stroke="none" stroke-width="1" fill="none" fill-rule="evenodd">
        <g id="Catalog" transform="translate(-30.000000, -10.000000)">
            <g id="Group-7">
                <g id="Group-14" transform="translate(30.000000, 10.000000)">
                    <path d="M99.9859259,32.1274074 L95.8755556,32.1274074 L95.8177778,18.9555556 C95.8207407,17.0681481 93.8422222,17.0266667 93.8422222,17.0266667 L92.0377778,17.0266667 C92.0377778,17.0266667 91.7940741,17.0681481 91.5074074,17.1096296 C88.92,17.6555556 88.1,19.6688889 88.0792593,21.9348148 L88.1148148,32.1274074 L83.9622222,32.1274074 L83.9548148,18.9977778 C83.9503704,17.0681481 81.9288889,17.0266667 81.9288889,17.0266667 L80.1259259,17.0266667 C80.1259259,17.0266667 79.8814815,17.0681481 79.5948148,17.1096296 C77.0051852,17.6555556 76.1866667,19.6688889 76.2081481,21.9348148 L76.2022222,32.1274074 L72.0496296,32.1274074 L72.0422222,21.137037 L72.0533333,12.8733333 L76.2051852,12.8733333 L76.2140741,14.5933333 C77.4237037,13.1251852 79.2177778,12.8318519 80.0992593,12.8318519 L81.6088889,12.8318519 C83.4548148,12.8318519 85.0674074,13.4185185 86.7681481,14.9711111 C88.5148148,13.4607407 90.04,12.8318519 92.0118519,12.8318519 L93.5214815,12.8318519 C97.2962963,12.8318519 99.9837037,15.2222222 100.008148,19.1651852 L99.9859259,32.1274074 Z" id="Fill-1" fill="#211300"></path>
                    <path d="M132.113333,12.8316296 L125.822222,12.8316296 L125.822963,8.9657037 L121.67037,6.45607407 L121.674074,32.1271852 L125.827407,32.1271852 L125.799259,16.9842222 L132.217778,16.9842222 C132.636296,16.9842222 133.07037,17.0679259 133.442222,17.2782963 C134.04,17.5716296 134.486667,18.2005185 134.46963,19.2908889 L134.468148,32.1271852 L138.619259,32.1271852 L138.592593,19.1234815 C138.61037,15.1805185 135.89037,12.8316296 132.113333,12.8316296" id="Fill-3" fill="#211300"></path>
                    <path d="M115.840963,8.77348148 L111.935037,6.41422222 L111.772815,6.41422222 L111.738741,16.9838519 L111.74763,16.9838519 L111.752074,25.332 C111.764667,28.7305185 113.264667,31.2882963 116.326889,32.0008889 C116.935778,32.1275556 117.355037,32.1275556 117.355037,32.1275556 L118.235778,32.1275556 L118.216519,27.974963 L117.629111,27.974963 C115.826148,27.974963 115.866889,25.8342222 115.866889,25.8342222 L115.860222,16.9838519 L118.249852,16.9838519 L118.230593,12.832 L115.840222,12.832 L115.840963,8.77348148 Z" id="Fill-5" fill="#211300"></path>
                    <path d="M103.982593,6.41414815 L103.796667,6.41414815 L103.810741,10.7763704 L107.88037,10.7763704 L107.892222,8.77637037 L103.982593,6.41414815 Z M103.80037,32.1274815 L107.912222,32.1274815 L107.907037,12.8319259 L103.795926,12.8319259 L103.80037,32.1274815 Z" id="Fill-7" fill="#211300"></path>
                    <path d="M51.4659259,25.0354074 C53.3155556,27.0028148 55.9118519,28.3791111 58.782963,28.3791111 C62.2437037,28.3405926 64.682963,27.0420741 64.682963,24.6820741 C64.682963,19.1746667 48.7525926,24.485037 48.7525926,14.4146667 C48.7525926,10.0087407 53.3548148,6.98059259 58.9792593,6.98059259 C63.0703704,6.98059259 66.3748148,8.27837037 68.8125926,10.7561481 L65.4311111,13.785037 C63.1874074,11.5828148 61.1422222,10.8354074 58.7437037,10.8354074 C54.9666667,10.8354074 53.5511111,12.685037 53.5511111,14.1798519 C53.5511111,19.725037 69.4822222,14.1798519 69.4822222,24.4465185 C69.4822222,29.5983704 64.2511111,32.7057778 58.5859259,32.7057778 C55.1251852,32.7057778 51.1118519,31.408 48.0044444,28.1435556 L51.4659259,25.0354074 Z" id="Fill-9" fill="#211300"></path>
                    <g id="Group-13" transform="translate(0.000000, 0.130889)">
                        <mask id="mask-2" fill="white">
                            <use xlink:href="#path-1"></use>
                        </mask>
                        <g id="Clip-12"></g>
                        <path d="M9.37244444,22.9579259 L15.9991111,22.9579259 L12.7042963,14.8097778 L9.37244444,22.9579259 Z M26.5420741,19.6260741 C26.5420741,24.0438519 30.2361481,27.4853333 34.328,27.4853333 C38.4198519,27.4853333 42.1139259,24.0438519 42.1139259,19.6260741 C42.1139259,15.2082963 38.4198519,11.7682963 34.328,11.7682963 C30.2361481,11.7682963 26.5420741,15.2082963 26.5420741,19.6260741 L26.5420741,19.6260741 Z M34.328,31.4682963 C27.5198519,31.4682963 22.1242963,26.2897778 22.1242963,19.6260741 C22.1242963,12.9623704 27.5198519,7.78459259 34.328,7.78459259 C38.7139259,7.78459259 42.510963,9.9357037 44.6598519,13.2468148 C41.2961481,5.78903704 32.5376296,0.609777778 23.0561481,0.609777778 C10.9376296,0.609777778 -0.000148148148,9.06977778 -0.000148148148,19.934963 C-0.000148148148,23.1357037 0.954666667,26.1245926 2.60355556,28.7534815 L11.5635556,8.252 L14.1161481,8.2557037 L23.7494815,30.9971852 L19.2228148,30.9971852 L17.4842963,26.7238519 L7.85096296,26.7238519 L5.64059259,32.4742222 C9.9717037,36.6512593 16.3302222,39.2594074 23.0561481,39.2594074 C33.3183704,39.2594074 42.7331852,33.1912593 45.3768889,24.7342222 C43.4383704,28.7564444 39.2539259,31.4682963 34.328,31.4682963 L34.328,31.4682963 Z" id="Fill-11" fill="#007E3F" mask="url(#mask-2)"></path>
                    </g>
                </g>
            </g>
        </g>
    </g>
</svg>