<?xml version="1.0" encoding="UTF-8"?>
<svg width="139px" height="40px" viewBox="0 0 139 40" version="1.1" xmlns="http://www.w3.org/2000/svg" xmlns:xlink="http://www.w3.org/1999/xlink">
    <!-- Generator: Sketch 55.1 (78136) - https://sketchapp.com -->
    <title>Group 19</title>
    <desc>Created with Sketch.</desc>
    <g id="Version-2" stroke="none" stroke-width="1" fill="none" fill-rule="evenodd">
        <g id="Invoice" transform="translate(-320.000000, -177.000000)">
            <g id="Group-19" transform="translate(320.000000, 177.000000)">
                <g id="Group-26">
                    <g id="Group-25">
                        <polygon id="Fill-1" fill="#C3C3C3" points="17.9998125 0 9 20 17.9998125 20 27 0"></polygon>
                        <polygon id="Fill-2" fill="#DB3A35" points="0 0 9 20 18 20 9 0"></polygon>
                    </g>
                    <g id="Group-24" transform="translate(21.000000, 8.000000)">
                        <path d="M19,16 C19,17.657 17.6566667,19 16,19 C14.343,19 13,17.657 13,16 C13,14.343 14.343,13 16,13 C17.6566667,13 19,14.343 19,16" id="Fill-3" fill="#DB3A35"></path>
                        <path d="M9.22988749,18 L0,18 C1.10079158,25.8566215 7.85436779,31.922841 16,31.922841 L16,22.891809 C12.8509619,22.891809 10.1765908,20.8380018 9.22988749,18" id="Fill-6" fill="#F89406"></path>
                        <path d="M9.22988749,14 C10.1765908,11.1462703 12.8509619,9.08108108 16,9.08108108 L16,0 C7.85436779,0 1.10079158,6.09983784 0,14 L9.22988749,14 Z" id="Fill-8" fill="#F89406"></path>
                    </g>
                </g>
                <path d="M56.688,9.28 L60.48,0.16 L61.376,0.16 L56.864,10.88 L56.528,10.88 L52,0.16 L52.896,0.16 L56.688,9.28 Z M63.568,0.16 L64.4,0.16 L64.4,10.72 L63.568,10.72 L63.568,0.16 Z M71.888,5.92 L75.456,10.72 L74.48,10.72 L70.928,5.984 L68.352,5.984 L68.352,10.72 L67.52,10.72 L67.52,0.16 L71.104,0.16 C72.08,0.16 72.864,0.432 73.44,0.976 C74.016,1.52 74.304,2.208 74.304,3.056 C74.304,4.528 73.408,5.648 71.888,5.92 Z M71.072,0.912 L68.352,0.912 L68.352,5.232 L71.072,5.232 C72.592,5.232 73.44,4.352 73.44,3.072 C73.44,1.792 72.592,0.912 71.072,0.912 Z M75.76,0.16 L84.32,0.16 L84.32,0.912 L80.448,0.912 L80.448,10.72 L79.616,10.72 L79.616,0.912 L75.76,0.912 L75.76,0.16 Z M90.512,-1.77635684e-15 C92.016,-1.77635684e-15 93.296,0.528 94.352,1.568 C95.408,2.608 95.936,3.904 95.936,5.44 C95.936,6.96 95.408,8.256 94.352,9.312 C93.296,10.352 92.016,10.88 90.512,10.88 C88.992,10.88 87.712,10.352 86.672,9.312 C85.632,8.256 85.104,6.96 85.104,5.44 C85.104,3.904 85.632,2.608 86.672,1.568 C87.712,0.528 88.992,-1.77635684e-15 90.512,-1.77635684e-15 Z M90.528,0.768 C89.232,0.768 88.144,1.216 87.28,2.112 C86.416,2.992 85.984,4.096 85.984,5.424 C85.984,6.752 86.416,7.856 87.28,8.752 C88.144,9.648 89.232,10.096 90.528,10.096 C91.824,10.096 92.896,9.648 93.76,8.752 C94.624,7.856 95.056,6.752 95.056,5.424 C95.056,4.112 94.624,3.008 93.744,2.112 C92.88,1.216 91.808,0.768 90.528,0.768 Z M57.632,16 C59.408,16 60.96,16.816 61.904,18.144 L61.28,18.64 C60.4,17.392 59.184,16.768 57.648,16.768 C56.352,16.768 55.28,17.216 54.4,18.112 C53.536,18.992 53.104,20.096 53.104,21.424 C53.104,22.752 53.536,23.872 54.4,24.768 C55.264,25.648 56.352,26.096 57.648,26.096 C59.2,26.096 60.4,25.472 61.28,24.24 L61.904,24.736 C60.96,26.064 59.408,26.88 57.632,26.88 C56.112,26.88 54.832,26.352 53.792,25.312 C52.752,24.272 52.224,22.976 52.224,21.44 C52.224,19.904 52.752,18.608 53.792,17.568 C54.832,16.528 56.112,16 57.632,16 Z M68.944,16 C70.448,16 71.728,16.528 72.784,17.568 C73.84,18.608 74.368,19.904 74.368,21.44 C74.368,22.96 73.84,24.256 72.784,25.312 C71.728,26.352 70.448,26.88 68.944,26.88 C67.424,26.88 66.144,26.352 65.104,25.312 C64.064,24.256 63.536,22.96 63.536,21.44 C63.536,19.904 64.064,18.608 65.104,17.568 C66.144,16.528 67.424,16 68.944,16 Z M68.96,16.768 C67.664,16.768 66.576,17.216 65.712,18.112 C64.848,18.992 64.416,20.096 64.416,21.424 C64.416,22.752 64.848,23.856 65.712,24.752 C66.576,25.648 67.664,26.096 68.96,26.096 C70.256,26.096 71.328,25.648 72.192,24.752 C73.056,23.856 73.488,22.752 73.488,21.424 C73.488,20.112 73.056,19.008 72.176,18.112 C71.312,17.216 70.24,16.768 68.96,16.768 Z M81.488,22.288 L85.888,16 L86.208,16 L86.208,26.72 L85.376,26.72 L85.376,18.128 L81.664,23.424 L81.344,23.424 L77.616,18.128 L77.616,26.72 L76.784,26.72 L76.784,16 L77.104,16 L81.488,22.288 Z M94.048,22.288 L98.448,16 L98.768,16 L98.768,26.72 L97.936,26.72 L97.936,18.128 L94.224,23.424 L93.904,23.424 L90.176,18.128 L90.176,26.72 L89.344,26.72 L89.344,16 L89.664,16 L94.048,22.288 Z M101.904,16.16 L108.512,16.16 L108.512,16.912 L102.736,16.912 L102.736,20.64 L107.232,20.64 L107.232,21.392 L102.736,21.392 L102.736,25.968 L108.704,25.968 L108.704,26.72 L101.904,26.72 L101.904,16.16 Z M115.28,21.92 L118.848,26.72 L117.872,26.72 L114.32,21.984 L111.744,21.984 L111.744,26.72 L110.912,26.72 L110.912,16.16 L114.496,16.16 C115.472,16.16 116.256,16.432 116.832,16.976 C117.408,17.52 117.696,18.208 117.696,19.056 C117.696,20.528 116.8,21.648 115.28,21.92 Z M114.464,16.912 L111.744,16.912 L111.744,21.232 L114.464,21.232 C115.984,21.232 116.832,20.352 116.832,19.072 C116.832,17.792 115.984,16.912 114.464,16.912 Z M125.184,16 C126.96,16 128.512,16.816 129.456,18.144 L128.832,18.64 C127.952,17.392 126.736,16.768 125.2,16.768 C123.904,16.768 122.832,17.216 121.952,18.112 C121.088,18.992 120.656,20.096 120.656,21.424 C120.656,22.752 121.088,23.872 121.952,24.768 C122.816,25.648 123.904,26.096 125.2,26.096 C126.752,26.096 127.952,25.472 128.832,24.24 L129.456,24.736 C128.512,26.064 126.96,26.88 125.184,26.88 C123.664,26.88 122.384,26.352 121.344,25.312 C120.304,24.272 119.776,22.976 119.776,21.44 C119.776,19.904 120.304,18.608 121.344,17.568 C122.384,16.528 123.664,16 125.184,16 Z M131.888,16.16 L138.496,16.16 L138.496,16.912 L132.72,16.912 L132.72,20.64 L137.216,20.64 L137.216,21.392 L132.72,21.392 L132.72,25.968 L138.688,25.968 L138.688,26.72 L131.888,26.72 L131.888,16.16 Z" id="VIRTO-COMMERCE" fill="#000000"></path>
            </g>
        </g>
    </g>
</svg>