<svg width="21" height="21" viewBox="0 0 21 21" fill="none" xmlns="http://www.w3.org/2000/svg">
<rect width="21" height="21" fill="white"/>
<path d="M10.5 1C8.62108 1 6.78435 1.55717 5.22209 2.60104C3.65982 3.64491 2.44218 5.12861 1.72315 6.86451C1.00412 8.6004 0.815985 10.5105 1.18254 12.3534C1.5491 14.1962 2.45389 15.8889 3.78249 17.2175C5.11109 18.5461 6.80383 19.4509 8.64665 19.8175C10.4895 20.184 12.3996 19.9959 14.1355 19.2769C15.8714 18.5578 17.3551 17.3402 18.399 15.7779C19.4428 14.2156 20 12.3789 20 10.5C19.9974 7.98125 18.9956 5.56641 17.2146 3.78538C15.4336 2.00435 13.0188 1.00262 10.5 1V1ZM6.54167 17.3459V16.8333C6.54167 15.7835 6.95871 14.7767 7.70104 14.0344C8.44337 13.292 9.45019 12.875 10.5 12.875C11.5498 12.875 12.5566 13.292 13.299 14.0344C14.0413 14.7767 14.4583 15.7835 14.4583 16.8333V17.3459C13.257 18.0472 11.891 18.4168 10.5 18.4168C9.109 18.4168 7.74296 18.0472 6.54167 17.3459V17.3459ZM8.125 8.91667C8.125 8.44694 8.26429 7.98775 8.52526 7.59719C8.78623 7.20662 9.15716 6.90221 9.59113 6.72245C10.0251 6.54269 10.5026 6.49566 10.9633 6.5873C11.424 6.67894 11.8472 6.90514 12.1794 7.23729C12.5115 7.56944 12.7377 7.99262 12.8294 8.45333C12.921 8.91403 12.874 9.39156 12.6942 9.82554C12.5145 10.2595 12.21 10.6304 11.8195 10.8914C11.4289 11.1524 10.9697 11.2917 10.5 11.2917C9.87011 11.2917 9.26602 11.0414 8.82062 10.596C8.37523 10.1506 8.125 9.54655 8.125 8.91667V8.91667ZM16.0001 16.1822C15.8933 15.285 15.5688 14.4276 15.0548 13.6846C14.5408 12.9415 13.853 12.3354 13.0511 11.9191C13.6717 11.396 14.1164 10.6948 14.3252 9.91058C14.5339 9.12631 14.4965 8.29683 14.2181 7.53451C13.9397 6.7722 13.4337 6.11388 12.7686 5.64876C12.1035 5.18363 11.3116 4.93417 10.5 4.93417C9.68843 4.93417 8.89647 5.18363 8.23141 5.64876C7.56635 6.11388 7.06033 6.7722 6.7819 7.53451C6.50348 8.29683 6.4661 9.12631 6.67483 9.91058C6.88357 10.6948 7.32833 11.396 7.94886 11.9191C7.14703 12.3354 6.45917 12.9415 5.94519 13.6846C5.4312 14.4276 5.10668 15.285 4.9999 16.1822C3.86531 15.0863 3.084 13.6764 2.75618 12.1333C2.42835 10.5903 2.56897 8.98456 3.15999 7.52201C3.751 6.05946 4.76547 4.80682 6.07327 3.92476C7.38106 3.0427 8.92255 2.57145 10.5 2.57145C12.0775 2.57145 13.6189 3.0427 14.9267 3.92476C16.2345 4.80682 17.249 6.05946 17.84 7.52201C18.431 8.98456 18.5717 10.5903 18.2438 12.1333C17.916 13.6764 17.1347 15.0863 16.0001 16.1822Z" fill="#343233"/>
</svg>
